<?xml version="1.0" encoding="utf-8"?>
<!-- Generator: Adobe Illustrator 26.3.1, SVG Export Plug-In . SVG Version: 6.00 Build 0)  -->
<svg version="1.1" id="Layer_1" xmlns="http://www.w3.org/2000/svg" xmlns:xlink="http://www.w3.org/1999/xlink" x="0px" y="0px"
	 viewBox="0 0 548.645 144.698" style="enable-background:new 0 0 548.645 144.698;" xml:space="preserve">
<path style="fill-rule:evenodd;clip-rule:evenodd;" d="M193.261,142.598V80.283h23.096v6.546c4.724-7.967,17.376-9.706,25.478-8.94
	v22.465c-20.444-3.376-24.868,6.933-24.868,16.089v26.156H193.261z M0,60.956l6.619-14.592c3.222,2.801,5.034,2.878,8.888,4.374
	c3.854,1.495,5.665,2.236,9.554,2.01c10.449-0.609,10.782-9.474-0.597-10.864c-6.731-0.822-11.786-2.425-16.74-7.323
	C0.117,27.04,4.056,13.117,11.545,7.154c4.549-3.622,11.185-5.921,18.956-5.921c4.001,0,7.579,0.464,11.706,1.39
	c4.128,0.926,7.63,1.993,11.947,3.91l-6.153,14.512c-4.128-2.457-9.215-4.02-13.759-3.973c-10.02,0.102-7.493,7.574-1.215,8.78
	c5.77,1.108,11.818,2.451,15.936,5.215c5.295,3.552,8.08,9.177,7.717,16.118c-0.775,14.808-14.649,21.963-27.985,21.963
	C18.547,69.147,8.68,66.342,0,60.956z M166.306,111.277c0-4.183-1.198-7.48-3.575-9.925c-2.377-2.445-5.624-3.78-9.72-3.78
	c-4.116,0-7.358,1.339-9.721,3.762c-2.353,2.413-4.267,5.863-4.267,10.065c0,4.166,1.929,7.34,4.306,9.749
	c2.377,2.409,5.604,3.604,9.682,3.604c4.097,0,6.978-1.439,9.355-3.847C164.742,118.495,166.306,115.443,166.306,111.277z
	 M109.617,35.316c0-4.183-1.198-7.48-3.575-9.925c-2.377-2.445-5.624-3.78-9.72-3.78c-4.116,0-7.358,1.34-9.721,3.762
	c-2.352,2.413-4.267,5.863-4.267,10.064c0,4.165,1.929,7.34,4.306,9.749c2.377,2.409,5.604,3.604,9.682,3.604
	c4.097,0,6.978-1.439,9.355-3.848C108.054,42.534,109.617,39.481,109.617,35.316z M188.838,79.418v63.168h-23.035v-8.546
	c-5.264,7.283-13.108,10.703-22.503,10.703c-20.426,0-30.116-16.363-30.116-33.262c0-10.151,3.311-17.994,8.936-23.975
	c5.625-5.981,12.699-9.946,22.218-9.946c9.5,0,17.29,5.583,21.937,12.945V79.418H188.838z M132.15,3.456v63.168h-23.035v-8.546
	c-5.264,7.284-13.109,10.703-22.503,10.703c-20.426,0-30.116-16.363-30.116-33.262c0-10.151,3.311-17.994,8.936-23.975
	c5.625-5.981,12.699-9.946,22.218-9.946c9.5,0,17.29,5.583,21.937,12.945V3.456H132.15z M135.439,66.259V3.944h23.509v6.546
	c3.203-5.346,14.26-9.134,20.128-9.134c20.748,0,25.319,12.246,25.319,29.229v35.675h-23.191V32.879
	c0-7.2-1.556-13.039-10.44-13.039c-12.364,0-11.619,11.038-11.619,20.263v26.156H135.439z M88.693,143.355v-34.679
	c0-6.841-1.445-11.907-10.173-11.907c-9.501,0-10.072,11.036-10.072,19.642v26.944H45.087v-34.679
	c0-6.849-2.893-11.922-9.228-11.907c-10.138,0.024-11.194,10.925-11.194,19.642v26.944H2.163V79.777h22.435v8.777
	c4.022-6.715,12.512-10.357,20.129-10.357c8.948,0,17.237,3.212,20.447,11.968c2.515-4.039,6.915-7.471,10.525-9.443
	c3.627-1.981,7.916-2.965,12.814-2.965c17.083,0,23.889,13.756,23.889,29.221v36.377H88.693z M293.749,101.849
	c-12.334-9.228-27.705-4.364-27.705,9.08c0,13.732,14.523,18.976,27.488,9.37l-0.865,20.377
	c-24.902,13.162-51.005-4.473-51.005-29.729c0-9.75,3.213-17.711,9.638-23.902c10.572-10.187,28.879-12.368,41.8-4.959
	L293.749,101.849z M346.618,111.303c0-7.735-4.639-14.722-14.078-14.722c-9.485,0-13.982,6.822-13.982,14.603
	c0,7.818,4.473,14.424,13.982,14.424C341.992,125.607,346.618,119.064,346.618,111.303z M370.173,111.121
	c0.224,21.439-17.651,33.996-37.59,33.996c-20.093,0-37.49-12.082-37.477-33.996c0.013-20.912,17.587-33.694,37.833-33.694
	C353.084,77.427,369.946,89.322,370.173,111.121z"/>
<path style="fill-rule:evenodd;clip-rule:evenodd;fill:#ED1C24;" d="M343.23,66.078c0,0.116-22.512,0.039-22.512-0.079
	c-0.008-2.485-1.357-2.701-4.567-2.695l0.24-24.058c7.088-0.123,9.726,2.152,13.63,5.714c3.468-3.414,7.354-6.064,13.228-5.701
	L343.23,66.078z M255.583,67.957c-0.401-3.341-0.542-4.144-1.653-6.456c-1.509-3.141-4.136-3.223-3.709-4.947
	c0.303-1.225,4.592-3.339,3.783-10.08c-0.198-1.654-2.43-4.457-3.135-6.494c-0.24-0.694-0.545-0.322-0.515-1.54
	c-0.278-0.016-0.877,1.721-1.095,2.088c-1.346,2.267-2.687,7.631-6.298,14.958c-1.435,2.912-6.854,3.98-10.511,2.466
	c-4.016-1.663-6.015-7.29-4.263-11.255c1.291-2.922,2.33-5.05,2.603-5.733c0.594-1.481,2.876-4.422,1.236-6.223
	c-1.001-1.099-2.447-1.533-4.27-0.477c-4.973,2.881-8.723,2.008-9.757-2.609c-0.339-1.513-0.521-3.314-0.301-4.55
	c2.546,1.306,5.948,2.491,8.536,0.418c0.223-0.179,4.43-2.019,4.947-2.274c0.927-0.457,3.22-0.659,4.495-0.249
	c1.787,0.576,3.121,2.168,3.823,3.869c0.194,0.47,0.677,2.709-0.264,4.461c-2.503,4.661-6.387,10.16-7.876,14.58
	c-0.615,1.827,0.174,4.519,1.572,5.819c0.971,0.902,3.33,2.12,6.306-0.107c2.817-2.107,2.71-5.686,3.988-9.58
	c1.327-4.044,2.397-8.535,4.382-12.237c2.496-4.655,9.026-8.096,12.426-8.312c10.425-0.662,19.131,5.695,31.841,5.232
	c3.589-0.131,3.26-4.219,0.849-4.601c-2.621-0.414-7.353-0.203-9.081-0.14c-5.672,0.207-14.77-1.226-22.341-6.823
	c-5.941,2.241-14.403,1.021-21.67-2.094c-7.253-3.108-13.442-9.755-14.58-13.74c-0.168-0.587-0.276-1.594,0.589-1.266
	c31.053,11.786,57.332-1.186,78.621,2.609c5.772,1.029,7.467,5.776,7.534,10.566c0.059,4.227-1.262,8.747-1.54,11.725
	c-0.33,3.539,3.035,3.999,4.993,2.196c0.89-0.819,1.074-2.522,1.218-3.885c0.133-1.26-0.19-2.188-0.195-2.491
	c-0.048-2.75-4.03-15.835-1.747-17.155c1.371-0.793,4.073,1.486,5.227,3.038c5.27-0.74,10.134-0.39,15.305,0.511
	c0.99-1.521,3.574-3.494,5.132-2.97c1.517,0.51,0.591,6.27-0.788,8.079c-0.964,3.142,0.655,8.028-0.252,13.018
	c-0.216,1.188-0.902,2.16-0.718,3.821c1.564,0.683,5.929,1.532,6.758,3.052c1.21,2.217,0.896,3.219,0.865,5.908
	c-0.118,10.404-0.05,20.036-0.213,29.966l-35.454-0.088c-0.963-4.118-1.948-7.088-2.843-8.595
	c-6.296,0.509-17.974-6.573-26.291-13.104c-1.047,11.518-6.863,10.002-10.815,10.363c-0.688,0.063-0.656,0.546-0.354,1.127
	c0.351,0.677,3.196,5.903,3.282,5.904c0.88,0.016,6.367-0.533,5.202,4.352l-9.441-0.026c-0.138-2.604-1.509-5.87-3.476-7.69
	c-2.856-2.643-3.602-3.098-2.815-4.255c1.78-2.614-1.408-0.969-2.555,0.133c-0.455,0.437-1.709,0.886-2.02,1.618
	c-0.686,1.614,1.736,3.241,2.152,5.795c0.077,0.472,5.904-0.904,4.706,4.353L255.583,67.957z"/>
<path style="fill:#ED1C24;" d="M486.748,92.947l-3.285,6.14l3.253,5.608l20.807,35.872h33.323l-28.211-41.581l-0.745-1.098
	l0.697-1.136l24.73-40.332H506.29L486.748,92.947z M455.877,56.42v84.148h26.99v-34.839V100.2v-2.139v-6.082V56.42H455.877z
	 M451.746,142.633V54.354v-2.065h2.065h31.121h2.065v2.065v29.404l16.249-30.372l0.587-1.097h1.228h35.937h3.683l-1.924,3.138
	L516.8,97.761l29.655,43.71l2.189,3.227h-3.9h-38.407h-1.184l-0.599-1.033l-17.558-30.27v29.238v2.065h-2.065h-31.121h-2.065
	V142.633z M410.035,79.413L410.035,79.413 M396.062,106.325c0.069,0.015,0.027,0.003,0.001-0.004L396.062,106.325z M395.129,110.333
	l0,0.002C395.185,110.346,395.234,110.356,395.129,110.333z M395.129,110.334l0-0.002c-0.003-0.001-0.006-0.002-0.01-0.002
	l-0.04-0.008c-0.005-0.001-0.01-0.002-0.015-0.003l-0.001,0.002C395.078,110.324,395.104,110.329,395.129,110.334z M381.437,113.514
	l-8.469,20.674c2.293,1.245,4.589,2.357,6.887,3.338c2.811,1.2,5.625,2.199,8.443,2.999h0.008c2.367,0.674,4.71,1.202,7.029,1.587
	c0.404,0.067,0.861,0.137,1.372,0.209c2.778,0.395,5.573,0.593,8.385,0.593h0.001c5.438,0,10.34-0.734,14.706-2.205
	c4.328-1.458,8.154-3.644,11.478-6.561c2.767-2.428,4.949-5.141,6.546-8.139c0.287-0.538,0.573-1.13,0.858-1.776
	c1.644-3.722,2.465-7.881,2.465-12.473v0c0-2.768-0.4-5.318-1.199-7.651c-0.794-2.316-1.985-4.432-3.574-6.347
	c-1.592-1.92-3.477-3.518-5.659-4.794c-2.217-1.296-4.727-2.259-7.532-2.888l-0.001,0.006c-0.445-0.096-1.159-0.257-2.173-0.492
	c-0.732-0.169-0.169-0.037-0.541-0.124c-0.184-0.043-0.374-0.088-0.569-0.133l-0.001,0l0-0.001
	c-6.004-1.279-10.126-2.757-12.364-4.421c-0.532-0.395-0.971-0.803-1.319-1.221c-0.752-0.907-1.129-1.885-1.129-2.932v0
	c0-1.491,0.499-2.777,1.509-3.833c0.193-0.202,0.397-0.389,0.611-0.558c0.208-0.166,0.436-0.324,0.684-0.475l0.001-0.001
	c0.679-0.414,1.457-0.737,2.332-0.969c0.202-0.053,0.367-0.094,0.496-0.122c1.003-0.218,2.125-0.326,3.368-0.327h0.001
	c1.579,0,3.183,0.163,4.81,0.486c1.611,0.32,3.237,0.794,4.877,1.422l0.008,0.008c1.653,0.639,3.28,1.41,4.882,2.311
	c0.887,0.499,1.773,1.04,2.659,1.624l7.941-18.996c-2.927-1.495-5.847-2.747-8.751-3.753c-0.754-0.261-1.422-0.482-2.003-0.66
	c-0.608-0.187-1.271-0.377-1.988-0.57h-0.008h0c-2.393-0.653-4.771-1.136-7.138-1.452c-2.371-0.316-4.799-0.472-7.285-0.472
	c-7.588,0-14.102,1.464-19.536,4.383c-1.06,0.57-2.071,1.188-3.033,1.854c-0.971,0.673-1.901,1.399-2.792,2.179l-0.016,0.016l0,0
	l-0.001-0.001c-6.308,5.532-9.461,12.729-9.461,21.592c0,2.832,0.399,5.414,1.197,7.744l0.002-0.001
	c0.792,2.311,1.975,4.388,3.549,6.231c2.302,2.694,5.355,4.812,9.159,6.346c0.721,0.29,1.504,0.57,2.349,0.839
	c0.855,0.272,1.685,0.507,2.49,0.704l0.001-0.004c0.954,0.208,1.021,0.223,1.102,0.24c0.849,0.183,1.888,0.407,3.627,0.797l0.001,0
	v0c4.563,0.938,7.673,2.246,9.335,3.917c0.405,0.408,0.733,0.834,0.983,1.281c0.426,0.76,0.639,1.563,0.639,2.409v0
	c0,1.058-0.243,2.024-0.732,2.902c-0.477,0.855-1.163,1.577-2.062,2.17l0.001,0.002c-0.682,0.455-1.47,0.813-2.364,1.075
	c-0.222,0.065-0.392,0.112-0.512,0.141c-1.01,0.243-2.141,0.365-3.393,0.365h-0.001c-2.417,0-4.969-0.416-7.65-1.241
	c-0.579-0.178-1.094-0.348-1.544-0.51c-0.438-0.158-0.962-0.362-1.571-0.612l-0.001,0c-1.887-0.774-3.866-1.759-5.943-2.951
	C384.48,115.467,382.988,114.542,381.437,113.514z M368.466,134.317l10.126-24.72l0.975-2.38l2.107,1.468
	c2.227,1.552,4.321,2.893,6.289,4.022c1.967,1.128,3.785,2.038,5.459,2.725l0.001,0c0.388,0.159,0.852,0.336,1.393,0.531
	c0.529,0.191,0.984,0.344,1.366,0.462c2.262,0.696,4.411,1.048,6.439,1.048h0.001c0.929,0,1.743-0.084,2.441-0.252
	c0.158-0.038,0.259-0.064,0.303-0.077c0.471-0.138,0.883-0.325,1.234-0.559l0.016-0.008c0.35-0.229,0.595-0.471,0.738-0.728
	c0.133-0.239,0.2-0.539,0.2-0.901v0c0-0.134-0.036-0.264-0.107-0.392c-0.074-0.131-0.176-0.262-0.306-0.393
	c-1.086-1.092-3.509-2.025-7.278-2.796l-0.04-0.008l-0.001,0c-1.11-0.249-2.468-0.542-3.578-0.781
	c-0.734-0.158-0.828-0.177-1.117-0.24l-0.065-0.016c-0.018-0.005-0.014-0.004,0-0.001l0.001-0.002
	c-1.018-0.249-1.951-0.508-2.798-0.777c-0.878-0.279-1.758-0.596-2.639-0.952c-4.434-1.788-8.02-4.288-10.757-7.492
	c-1.925-2.254-3.366-4.777-4.324-7.57v-0.008c-0.95-2.772-1.425-5.797-1.425-9.074c0-10.107,3.633-18.342,10.898-24.704l0.016-0.016
	l0-0.001l0.001,0.001c1.006-0.88,2.055-1.698,3.146-2.454c1.107-0.767,2.247-1.466,3.42-2.096
	c6.054-3.253,13.219-4.883,21.488-4.883c2.598,0,5.203,0.173,7.817,0.521c2.619,0.349,5.181,0.864,7.686,1.549h0.001l0,0.002
	c0.652,0.176,1.361,0.381,2.126,0.617c0.795,0.245,1.506,0.476,2.132,0.693c3.648,1.264,7.326,2.899,11.017,4.897l1.645,0.89
	l-0.717,1.715l-9.653,23.094l-1.013,2.424l-2.109-1.553c-1.45-1.068-2.908-2.015-4.375-2.84c-1.462-0.822-2.908-1.511-4.34-2.064
	l-0.001,0.004c-1.427-0.546-2.827-0.956-4.2-1.228c-1.357-0.269-2.697-0.405-4.02-0.405h-0.001c-0.959,0-1.792,0.077-2.497,0.23
	c-0.149,0.032-0.255,0.057-0.318,0.074c-0.487,0.129-0.899,0.296-1.236,0.502l-0.001,0c-0.092,0.056-0.181,0.118-0.264,0.184
	c-0.078,0.061-0.141,0.118-0.192,0.171c-0.243,0.254-0.363,0.588-0.363,0.993v0c0,0.06,0.059,0.16,0.177,0.302
	c0.148,0.179,0.346,0.36,0.592,0.543c1.759,1.308,5.361,2.546,10.807,3.703l0.041,0.008l0.001,0c0.196,0.046,0.386,0.09,0.569,0.134
	c0.739,0.172,0.135,0.034,0.525,0.124c0.75,0.173,1.473,0.334,2.124,0.475l0.008,0.008c3.263,0.73,6.174,1.845,8.735,3.342
	c2.598,1.518,4.85,3.429,6.757,5.729c1.911,2.304,3.344,4.85,4.299,7.638c0.95,2.772,1.425,5.768,1.425,8.99v0
	c0,5.164-0.939,9.876-2.82,14.135c-0.289,0.653-0.623,1.337-1.003,2.051c-1.835,3.442-4.323,6.542-7.466,9.301
	c-3.736,3.278-8.03,5.733-12.882,7.368c-4.813,1.621-10.151,2.431-16.013,2.431h-0.001c-2.972,0-5.96-0.214-8.965-0.642
	c-0.431-0.061-0.915-0.137-1.453-0.226c-2.523-0.417-5.022-0.979-7.497-1.683l0.001-0.002c-2.984-0.847-5.961-1.905-8.936-3.174
	c-2.962-1.264-5.924-2.74-8.888-4.427l-1.574-0.896L368.466,134.317z"/>
</svg>
